HIERARCHY
ROOT Hips
{
 OFFSET 0.000000 0.000000 0.000000
 CHANNELS 6 Xposition Yposition Zposition Yrotation Xrotation Zrotation
 JOINT Chest
 {
  OFFSET 0.000000 9.585900 0.002600
  CHANNELS 3 Yrotation Xrotation Zrotation
  JOINT Chest2
  {
   OFFSET 0.000000 9.601200 -0.005300
   CHANNELS 3 Yrotation Xrotation Zrotation
   JOINT Chest3
   {
    OFFSET 0.000000 9.561800 0.000000
    CHANNELS 3 Yrotation Xrotation Zrotation
    JOINT Chest4
    {
     OFFSET 0.000000 9.552100 0.000000
     CHANNELS 3 Yrotation Xrotation Zrotation
     JOINT Neck
     {
      OFFSET 0.000000 14.453000 0.000000
      CHANNELS 3 Yrotation Xrotation Zrotation
      JOINT Head
      {
       OFFSET 0.000000 8.936500 -0.011300
       CHANNELS 3 Yrotation Xrotation Zrotation
       End Site
       {
        OFFSET 0.000000 17.073600 -0.006000
       }
      }
     }
     JOINT RightCollar
     {
      OFFSET -2.921100 9.558500 0.000000
      CHANNELS 3 Yrotation Xrotation Zrotation
      JOINT RightShoulder
      {
       OFFSET -13.519700 0.000000 0.000000
       CHANNELS 3 Yrotation Xrotation Zrotation
       JOINT RightElbow
       {
        OFFSET 0.000000 -29.696600 0.000000
        CHANNELS 3 Yrotation Xrotation Zrotation
        JOINT RightWrist
        {
         OFFSET 0.000000 -24.004700 0.000000
         CHANNELS 3 Yrotation Xrotation Zrotation
         End Site
         {
          OFFSET 0.000000 -17.728500 0.000000
         }
        }
       }
      }
     }
     JOINT LeftCollar
     {
      OFFSET 2.921100 9.558500 0.000000
      CHANNELS 3 Yrotation Xrotation Zrotation
      JOINT LeftShoulder
      {
       OFFSET 13.519700 0.000000 0.000000
       CHANNELS 3 Yrotation Xrotation Zrotation
       JOINT LeftElbow
       {
        OFFSET 0.000000 -29.696600 0.000000
        CHANNELS 3 Yrotation Xrotation Zrotation
        JOINT LeftWrist
        {
         OFFSET 0.000000 -24.004700 0.000000
         CHANNELS 3 Yrotation Xrotation Zrotation
         End Site
         {
          OFFSET 0.000000 -17.728500 0.000000
         }
        }
       }
      }
     }
    }
   }
  }
 }
 JOINT RightHip
 {
  OFFSET -7.771700 -0.012900 -0.001300
  CHANNELS 3 Yrotation Xrotation Zrotation
  JOINT RightKnee
  {
   OFFSET 0.000000 -40.869800 0.001200
   CHANNELS 3 Yrotation Xrotation Zrotation
   JOINT RightAnkle
   {
    OFFSET 0.000000 -39.717900 0.002100
    CHANNELS 3 Yrotation Xrotation Zrotation
    JOINT RightToe
    {
     OFFSET 0.000000 -4.965400 11.033500
     CHANNELS 3 Yrotation Xrotation Zrotation
     End Site
     {
      OFFSET 0.000000 -1.423100 5.872300
     }
    }
   }
  }
 }
 JOINT LeftHip
 {
  OFFSET 7.771700 -0.012900 -0.001300
  CHANNELS 3 Yrotation Xrotation Zrotation
  JOINT LeftKnee
  {
   OFFSET 0.000000 -40.869800 0.001200
   CHANNELS 3 Yrotation Xrotation Zrotation
   JOINT LeftAnkle
   {
    OFFSET 0.000000 -39.717900 0.002100
    CHANNELS 3 Yrotation Xrotation Zrotation
    JOINT LeftToe
    {
     OFFSET 0.000000 -4.965400 11.033500
     CHANNELS 3 Yrotation Xrotation Zrotation
     End Site
     {
      OFFSET 0.000000 -1.423100 5.872300
     }
    }
   }
  }
 }
}
MOTION
Frames: 13
Frame Time: 0.008333
0.000000 85.388000 0.000000 0.000000 -5.767877 0.000000 0.000000 11.653817 0.000000 0.000000 -5.885947 0.000000 0.000000 -0.000000 0.000000 0.000000 -0.000000 0.000000 0.000000 12.528835 0.000000 0.000000 0.711642 0.000000 0.000000 -0.000000 0.000000 0.000000 0.000000 -90.000000 0.000000 -2.309062 0.000000 0.000000 2.309062 0.000000 0.000000 -0.000000 0.000000 0.000000 -0.000000 90.000000 0.000000 -2.309062 0.000000 0.000000 2.309062 0.000000 0.000000 8.520406 0.000000 0.000000 1.905762 0.000000 -0.000000 -4.658285 0.000000 0.000000 -0.000000 0.000000 0.000000 8.520406 0.000000 0.000000 1.905762 0.000000 -0.000000 -4.658285 0.000000 0.000000 -0.000000 0.000000
-229.484677 57.620604 23.533519 174.114949 -51.124970 -2.609758 3.723216 22.373688 3.444236 1.910420 12.788119 1.776580 2.460206 16.002996 2.305156 1.901139 12.809415 1.778399 3.354639 22.237700 3.601860 5.069216 5.470445 5.610001 2.461871 3.128264 0.913236 2.239447 -15.779851 -11.796309 -27.681900 -16.327182 91.274363 -10.228140 -10.738364 -34.801003 -8.193603 3.226041 0.323886 11.468264 -17.515988 -0.668688 -170.870524 -69.738668 159.046546 -23.627632 -18.092413 34.924019 7.188786 -20.961196 -0.491700 -44.109449 72.521538 -47.874006 3.672607 -14.023379 12.100261 0.008257 -0.050353 -0.010859 -9.865716 -18.339804 8.819399 54.890492 81.568346 56.346192 0.145855 -18.151630 -22.734207 0.014967 0.037798 0.011621
-229.484159 57.620759 23.535582 174.114408 -51.135319 -2.609556 3.726893 22.366067 3.447079 1.910147 12.790917 1.774173 2.461918 16.011583 2.308115 1.912294 12.793564 1.773514 3.364802 22.248639 3.620513 5.075184 5.475653 5.620073 2.445485 3.149708 0.922912 2.243036 -15.786562 -11.797766 -27.683046 -16.323425 91.272488 -10.223799 -10.740405 -34.800629 -8.217180 3.244874 0.327078 11.472408 -17.524498 -0.668400 -170.886362 -69.767992 159.059491 -23.618493 -18.088191 34.915503 7.178976 -20.950303 -0.490184 -44.086868 72.521665 -47.855035 3.677203 -14.027471 12.102297 0.008071 -0.045148 -0.016815 -9.872396 -18.328839 8.826819 54.892953 81.563133 56.335797 0.134507 -18.148001 -22.730227 0.012526 0.037486 0.011340
-229.483680 57.621277 23.537533 174.120373 -51.149305 -2.615124 3.725567 22.348456 3.442339 1.910114 12.806587 1.779189 2.467443 15.997792 2.307514 1.909518 12.815925 1.779839 3.378578 22.243031 3.628742 5.083336 5.482957 5.628154 2.441638 3.156594 0.923226 2.240849 -15.795119 -11.804839 -27.688641 -16.314333 91.279867 -10.223795 -10.741322 -34.799784 -8.219269 3.247864 0.327410 11.473527 -17.535379 -0.669288 -170.938156 -69.806203 159.100947 -23.606725 -18.087866 34.898234 7.170113 -20.936076 -0.487594 -44.082552 72.517764 -47.844500 3.677006 -14.025696 12.095457 0.009976 -0.045328 -0.010885 -9.881346 -18.315660 8.831712 54.904958 81.550043 56.337126 0.118707 -18.137563 -22.725307 0.015867 0.034699 0.010175
-229.482395 57.621661 23.539713 174.119054 -51.163110 -2.621952 3.730970 22.344168 3.449845 1.909855 12.805137 1.780275 2.467342 16.007529 2.309161 1.910810 12.817905 1.780159 3.385805 22.239080 3.634821 5.130795 5.487562 5.649971 2.436869 3.161744 0.920816 2.240559 -15.797769 -11.804682 -27.701460 -16.300206 91.296354 -10.212936 -10.735320 -34.806617 -8.220299 3.250409 0.329180 11.475414 -17.538865 -0.670532 -170.973727 -69.827313 159.129131 -23.574823 -18.077361 34.868200 7.164373 -20.924425 -0.476557 -44.071867 72.520108 -47.832292 3.675354 -14.025861 12.096314 0.011785 -0.045689 -0.012274 -9.886055 -18.302004 8.842312 54.921116 81.547857 56.346108 0.113360 -18.134658 -22.721432 0.010851 0.033765 0.007953
-229.482378 57.623708 23.540207 174.126921 -51.189749 -2.630262 3.729432 22.361343 3.454158 1.909267 12.804152 1.780615 2.466827 16.006982 2.309675 1.909868 12.805081 1.780285 3.388486 22.258732 3.637939 5.134472 5.490968 5.652613 2.435161 3.184455 0.921690 2.231408 -15.810525 -11.813100 -27.691996 -16.280588 91.306151 -10.221372 -10.769074 -34.802284 -8.203940 3.262488 0.331049 11.464063 -17.535513 -0.672746 -171.022583 -69.848913 159.166513 -23.543293 -18.062072 34.834506 7.151475 -20.896429 -0.469646 -44.055732 72.517421 -47.820902 3.683746 -14.023275 12.103440 0.008838 -0.048207 -0.019783 -9.890825 -18.275051 8.842202 54.926407 81.546132 56.344707 0.122169 -18.128341 -22.722694 0.007127 0.032188 0.009587
-229.482866 57.624056 23.541748 174.124042 -51.203629 -2.631415 3.733915 22.364703 3.458548 1.908684 12.803164 1.780999 2.465636 15.993474 2.309683 1.902730 12.775247 1.781684 3.398826 22.297138 3.644051 5.143155 5.509736 5.662801 2.437668 3.234661 0.924926 2.212673 -15.820024 -11.818700 -27.669039 -16.262449 91.314157 -10.217449 -10.776823 -34.802330 -8.193120 3.308987 0.320420 11.464413 -17.543688 -0.673881 -171.157039 -69.926122 159.286022 -23.562931 -18.077163 34.812613 7.145446 -20.884586 -0.464268 -44.042311 72.516403 -47.809359 3.689698 -14.018352 12.102858 0.014055 -0.050803 -0.020738 -9.888738 -18.260993 8.844791 54.922508 81.545986 56.338401 0.121305 -18.126666 -22.721735 0.010499 0.031236 0.008797
-229.485078 57.624400 23.542725 174.122325 -51.217394 -2.626786 3.729229 22.359864 3.452558 1.905840 12.784993 1.782333 2.465320 16.005158 2.309934 1.903517 12.781263 1.781432 3.396835 22.290212 3.655071 5.145150 5.546656 5.685441 2.437351 3.250474 0.922869 2.194360 -15.829759 -11.817321 -27.657302 -16.245905 91.329240 -10.212064 -10.774465 -34.808844 -8.187204 3.326248 0.315320 11.487092 -17.570410 -0.686188 -171.241197 -69.996461 159.344537 -23.555429 -18.078592 34.785376 7.145601 -20.870756 -0.473671 -44.023339 72.519730 -47.789258 3.699186 -14.017077 12.106127 0.009987 -0.053289 -0.021360 -9.883233 -18.248548 8.837651 54.924041 81.545425 56.339742 0.120235 -18.126235 -22.719696 0.011013 0.031089 0.008601
-229.487970 57.624450 23.543543 174.123832 -51.228446 -2.624355 3.723401 22.340730 3.448621 1.905528 12.800913 1.781765 2.463256 15.996857 2.310748 1.905257 12.798160 1.781122 3.390302 22.283196 3.662386 5.146764 5.563413 5.685593 2.443194 3.245525 0.926909 2.174870 -15.831800 -11.820884 -27.639148 -16.230024 91.339705 -10.211701 -10.798604 -34.800058 -8.185424 3.331462 0.313223 11.495124 -17.581381 -0.694614 -171.299464 -70.036651 159.393293 -23.549903 -18.075341 34.764738 7.146430 -20.857826 -0.481010 -44.004108 72.525553 -47.769011 3.699345 -14.020142 12.116547 0.007884 -0.053620 -0.018544 -9.878176 -18.239006 8.829138 54.894110 81.550572 56.308364 0.132505 -18.125839 -22.713278 0.007617 0.033457 0.005826
-229.491339 57.624191 23.544261 174.124271 -51.236913 -2.621566 3.722024 22.343493 3.445072 1.904615 12.792531 1.780158 2.459584 15.988003 2.311428 1.903235 12.804713 1.782885 3.389175 22.294572 3.666399 5.146420 5.571103 5.688423 2.454061 3.252662 0.931442 2.153135 -15.848013 -11.828207 -27.623674 -16.197581 91.340612 -10.204710 -10.796839 -34.800385 -8.180470 3.345681 0.307807 11.500789 -17.590113 -0.701611 -171.339909 -70.066740 159.426633 -23.563269 -18.080098 34.758860 7.148381 -20.847337 -0.489409 -43.993148 72.526186 -47.752503 3.698496 -14.022285 12.121007 0.013325 -0.050958 -0.018613 -9.872291 -18.231819 8.822313 54.859614 81.553039 56.272662 0.133698 -18.126754 -22.707042 0.010801 0.035978 0.005664
-229.493686 57.624146 23.544747 174.126687 -51.246350 -2.628833 3.724832 22.347392 3.451543 1.905132 12.789415 1.777794 2.458845 15.993534 2.315094 1.903560 12.797083 1.781662 3.383068 22.303119 3.671988 5.133767 5.573988 5.706271 2.455520 3.260477 0.934969 2.147761 -15.855797 -11.828856 -27.627540 -16.180380 91.338076 -10.198568 -10.790893 -34.797691 -8.187997 3.349575 0.299755 11.509104 -17.592444 -0.698638 -171.347121 -70.079872 159.428439 -23.522608 -18.044213 34.738598 7.146372 -20.837877 -0.487749 -43.985422 72.522013 -47.738874 3.708241 -14.017925 12.124508 0.011796 -0.052089 -0.019898 -9.872474 -18.222105 8.824930 54.881422 81.549237 56.294300 0.125639 -18.130124 -22.702978 0.008271 0.038277 0.003646
-229.496445 57.624450 23.544650 174.122789 -51.258888 -2.629977 3.732722 22.340144 3.450003 1.905624 12.802980 1.784246 2.459025 15.992761 2.313402 1.909070 12.798667 1.779628 3.375187 22.307009 3.683663 5.102218 5.580555 5.738873 2.455185 3.255322 0.944494 2.143552 -15.856492 -11.825972 -27.634318 -16.177427 91.333836 -10.185223 -10.791946 -34.805401 -8.195339 3.352615 0.305883 11.513800 -17.597507 -0.701273 -171.408456 -70.112875 159.482278 -23.462085 -17.997448 34.704268 7.147963 -20.826175 -0.483438 -43.984253 72.520443 -47.736295 3.709069 -14.014835 12.125007 0.011763 -0.053320 -0.014701 -9.867637 -18.209956 8.826105 54.888683 81.549379 56.300206 0.122378 -18.131035 -22.696662 0.003679 0.038505 0.001045
-229.498528 57.626246 23.543263 174.128017 -51.282649 -2.642068 3.738685 22.352735 3.457201 1.907562 12.805093 1.785401 2.459850 15.997466 2.316792 1.906514 12.801383 1.782774 3.370116 22.305587 3.685449 5.100148 5.583310 5.741360 2.453465 3.236506 0.944308 2.147007 -15.845301 -11.821451 -27.636576 -16.175987 91.326033 -10.174189 -10.788547 -34.809588 -8.197795 3.350284 0.304442 11.515705 -17.599657 -0.700869 -171.453614 -70.145119 159.527722 -23.444673 -17.991571 34.689916 7.142563 -20.804323 -0.475872 -43.986028 72.521928 -47.735334 3.716744 -14.007978 12.128010 0.004699 -0.060887 -0.016259 -9.863370 -18.185772 8.824726 54.908545 81.547326 56.327784 0.121534 -18.132696 -22.695914 0.007637 0.037074 0.000461
